# xmcd
#
# Track frame offsets: 
#        150
#        14968
#        25985
#        39758
#        51886
#        64841
#        80182
#        94532
#        109127
#        124923
#        144866
#        159945
#        186043
#
# Disc length: 2682 seconds
#
# Revision: 0
# Processed by: cddbd v1.5.2PL0 Copyright (c) Steve Scherf et al.
# Submitted via: ExactAudioCopy v1.0b3
#
DISCID=aa0a780d
DTITLE=Daniel Eriksen - Moonshine Hymns
DYEAR=2015
DGENRE=Blues
TTITLE0=Tornado Angel
TTITLE1=I Want My Crown
TTITLE2=Over The Hill
TTITLE3=I Wish I Was In Heaven Sitting Down
TTITLE4=John The Revelator
TTITLE5=Screaming For My Lord
TTITLE6=Squeeze This Trigger
TTITLE7=Old Tim's Marking Stone
TTITLE8=See That My Grave Is Kept Clean
TTITLE9=Devil's Game
TTITLE10=So I Can Die Easy
TTITLE11=Jesus Met The Woman @ The Well
TTITLE12=Nobody's Fault But Mine
EXTD=
EXTT0=
EXTT1=
EXTT2=
EXTT3=
EXTT4=
EXTT5=
EXTT6=
EXTT7=
EXTT8=
EXTT9=
EXTT10=
EXTT11=
EXTT12=
PLAYORDER=
